<svg xmlns="http://www.w3.org/2000/svg" xmlns:xlink="http://www.w3.org/1999/xlink" width="500" zoomAndPan="magnify" viewBox="0 0 375 374.999991" height="500" preserveAspectRatio="xMidYMid meet" version="1.0"><defs><g/><clipPath id="6c103555b9"><path d="M 6.808594 141 L 30 141 L 30 223 L 6.808594 223 Z M 6.808594 141 " clip-rule="nonzero"/></clipPath><clipPath id="e9c890db78"><path d="M 6.808594 226 L 107 226 L 107 234.617188 L 6.808594 234.617188 Z M 6.808594 226 " clip-rule="nonzero"/></clipPath><clipPath id="cc6c39c005"><path d="M 63 140.117188 L 107 140.117188 L 107 223 L 63 223 Z M 63 140.117188 " clip-rule="nonzero"/></clipPath></defs><g clip-path="url(#6c103555b9)"><path fill="#7acbcd" d="M 26.863281 222.769531 L 9.726562 222.769531 C 8.214844 222.769531 6.972656 221.523438 6.972656 220.011719 L 6.972656 144.660156 C 6.972656 143.144531 8.214844 141.902344 9.726562 141.902344 L 26.863281 141.902344 C 28.378906 141.902344 29.621094 143.144531 29.621094 144.660156 L 29.621094 220.011719 C 29.621094 221.523438 28.378906 222.769531 26.863281 222.769531 Z M 26.863281 222.769531 " fill-opacity="1" fill-rule="nonzero"/></g><g clip-path="url(#e9c890db78)"><path fill="#ffffff" d="M 106.917969 228.28125 L 106.917969 233.363281 C 106.917969 234.226562 106.214844 234.875 105.40625 234.875 L 8.484375 234.875 C 7.621094 234.875 6.972656 234.175781 6.972656 233.363281 L 6.972656 228.28125 C 6.972656 227.417969 7.675781 226.769531 8.484375 226.769531 L 105.40625 226.769531 C 106.269531 226.769531 106.917969 227.472656 106.917969 228.28125 Z M 106.917969 228.28125 " fill-opacity="1" fill-rule="nonzero"/></g><path fill="#ffffff" d="M 55.78125 222.769531 L 38.648438 222.769531 C 37.132812 222.769531 35.890625 221.523438 35.890625 220.011719 L 35.890625 144.660156 C 35.890625 143.144531 37.132812 141.902344 38.648438 141.902344 L 55.78125 141.902344 C 57.296875 141.902344 58.539062 143.144531 58.539062 144.660156 L 58.539062 220.011719 C 58.484375 221.523438 57.296875 222.769531 55.78125 222.769531 Z M 55.78125 222.769531 " fill-opacity="1" fill-rule="nonzero"/><g clip-path="url(#cc6c39c005)"><path fill="#ffffff" d="M 104.972656 217.796875 L 88.539062 222.605469 C 87.082031 223.039062 85.566406 222.226562 85.132812 220.769531 L 63.835938 148.496094 C 63.40625 147.039062 64.214844 145.523438 65.675781 145.09375 L 82.109375 140.226562 C 83.566406 139.792969 85.082031 140.605469 85.511719 142.066406 L 106.8125 214.390625 C 107.242188 215.847656 106.433594 217.363281 104.972656 217.796875 Z M 104.972656 217.796875 " fill-opacity="1" fill-rule="nonzero"/></g><g fill="#000000" fill-opacity="1"><g transform="translate(124.603297, 220.466671)"><g><path d="M 32.21875 -48.203125 C 31.34375 -49.21875 30.546875 -50.234375 29.328125 -50.796875 L 28.890625 -50.015625 C 29.90625 -49.4375 30.921875 -48.421875 31.484375 -47.640625 Z M 26.65625 -52.25 C 25.875 -52.75 23.921875 -53.03125 23.125 -53.1875 L 22.984375 -52.25 C 23.703125 -52.171875 25.515625 -51.890625 26.375 -51.375 Z M 34.875 -41.515625 C 34.8125 -42.8125 34.296875 -44.3125 33.71875 -45.546875 L 32.859375 -45.109375 C 33.4375 -43.890625 33.875 -42.59375 34.015625 -41.21875 Z M 25.9375 -44.25 C 25.078125 -45.1875 24.0625 -45.609375 22.984375 -45.765625 L 22.84375 -44.828125 C 23.859375 -44.75 24.71875 -44.25 25.296875 -43.671875 Z M 34.953125 -38.765625 L 34.015625 -38.84375 C 33.875 -37.609375 33.65625 -36.75 33.359375 -36.03125 L 34.15625 -35.453125 C 34.59375 -36.171875 34.875 -37.609375 34.953125 -38.765625 Z M 20.46875 -52.25 L 20.46875 -53.1875 L 16.140625 -53.1875 L 16.140625 -52.25 Z M 27.171875 -37.546875 C 27.890625 -38.984375 27.75 -41.515625 27.171875 -42.734375 L 26.375 -42.296875 C 26.734375 -41.140625 26.953125 -39.125 26.375 -38.125 Z M 20.828125 -44.890625 L 20.828125 -45.828125 L 16.5 -45.828125 L 16.5 -44.890625 Z M 33.65625 -34.015625 L 32.78125 -34.453125 C 32.421875 -33.71875 32 -33.078125 31.421875 -32.28125 L 32.21875 -31.703125 C 32.71875 -32.28125 33.359375 -33.359375 33.65625 -34.015625 Z M 13.984375 -52.25 L 13.984375 -53.1875 L 9.65625 -53.1875 L 9.65625 -52.25 Z M 36.609375 -28.03125 C 35.890625 -28.96875 35.015625 -30.1875 34.234375 -30.625 L 33.65625 -29.828125 C 34.234375 -29.46875 35.3125 -28.25 35.890625 -27.453125 Z M 38.84375 -22.046875 C 38.703125 -23.203125 38.125 -24.859375 37.546875 -26.09375 L 36.6875 -25.65625 C 37.25 -24.421875 37.765625 -23.203125 37.984375 -21.765625 Z M 26.234375 -36.03125 L 25.515625 -36.609375 C 24.859375 -35.890625 23.921875 -35.375 23.0625 -35.234375 L 23.203125 -34.296875 C 24.28125 -34.453125 25.4375 -35.09375 26.234375 -36.03125 Z M 14.34375 -44.890625 L 14.34375 -45.828125 L 11.671875 -45.828125 L 11.671875 -44.890625 Z M 7.5625 -52.09375 L 7.5625 -53.109375 C 5.765625 -52.75 4.90625 -51.734375 4.546875 -50.15625 L 5.546875 -50.15625 C 5.546875 -51.09375 6.703125 -52.09375 7.5625 -52.09375 Z M 27.75 -26.8125 C 26.15625 -27.671875 24.140625 -27.53125 22.84375 -27.53125 L 22.84375 -26.65625 C 24.0625 -26.65625 26.015625 -26.65625 27.234375 -26.015625 Z M 31.703125 -21.265625 C 31.5625 -22.765625 30.765625 -24.421875 29.6875 -25.4375 L 29.046875 -24.796875 C 30.046875 -23.703125 30.625 -22.625 30.765625 -21.046875 Z M 12.609375 -41.21875 L 12.609375 -43.890625 L 11.671875 -43.890625 L 11.671875 -41.21875 Z M 38.984375 -18.8125 L 37.984375 -18.8125 C 37.90625 -17.4375 37.609375 -16.140625 37.109375 -14.984375 L 37.90625 -14.625 C 38.484375 -15.78125 38.84375 -17.296875 38.984375 -18.8125 Z M 20.828125 -34.15625 L 20.828125 -35.09375 L 16.5 -35.09375 L 16.5 -34.15625 Z M 5.40625 -43.375 L 5.40625 -47.703125 L 4.46875 -47.703125 L 4.46875 -43.375 Z M 20.328125 -26.65625 L 20.328125 -27.59375 L 16 -27.59375 L 16 -26.65625 Z M 12.609375 -36.25 L 12.609375 -39.640625 L 11.671875 -39.640625 L 11.671875 -36.25 Z M 31.78125 -19.390625 L 30.84375 -19.59375 C 30.765625 -18.234375 30.34375 -17 29.625 -16 L 30.265625 -15.34375 C 31.125 -16.21875 31.703125 -18.015625 31.78125 -19.390625 Z M 14.34375 -34.234375 L 14.34375 -35.171875 L 11.671875 -35.171875 L 11.671875 -34.234375 Z M 5.40625 -36.890625 L 5.40625 -41.21875 L 4.46875 -41.21875 L 4.46875 -36.890625 Z M 36.3125 -11.390625 L 35.53125 -11.8125 C 35.015625 -10.734375 34.015625 -9.796875 33.15625 -9.15625 L 33.796875 -8.4375 C 34.875 -9.375 35.53125 -9.875 36.3125 -11.390625 Z M 13.84375 -26.65625 L 13.84375 -27.59375 L 11.671875 -27.59375 L 11.671875 -26.65625 Z M 28.46875 -13.765625 L 28.03125 -14.5625 C 26.59375 -13.46875 24.5 -13.40625 22.921875 -13.40625 L 22.921875 -12.390625 C 24.640625 -12.390625 26.953125 -12.46875 28.46875 -13.765625 Z M 5.40625 -30.40625 L 5.40625 -34.734375 L 4.46875 -34.734375 L 4.46875 -30.40625 Z M 31.203125 -6.703125 L 30.765625 -7.640625 C 29.90625 -6.984375 28.53125 -6.484375 27.453125 -6.34375 L 27.53125 -5.40625 C 28.6875 -5.625 30.1875 -6.125 31.203125 -6.703125 Z M 12.609375 -21.109375 L 12.609375 -25.4375 L 11.671875 -25.4375 L 11.671875 -21.109375 Z M 20.328125 -12.46875 L 20.328125 -13.40625 L 16 -13.40625 L 16 -12.46875 Z M 5.40625 -23.921875 L 5.40625 -28.25 L 4.46875 -28.25 L 4.46875 -23.921875 Z M 12.609375 -14.625 L 12.609375 -18.953125 L 11.671875 -18.953125 L 11.671875 -14.625 Z M 24.640625 -5.046875 L 24.640625 -5.984375 L 20.328125 -5.984375 L 20.328125 -5.046875 Z M 13.84375 -12.53125 L 13.84375 -13.46875 L 11.671875 -13.46875 L 11.671875 -12.53125 Z M 5.40625 -17.4375 L 5.40625 -21.765625 L 4.46875 -21.765625 L 4.46875 -17.4375 Z M 18.15625 -5.046875 L 18.15625 -5.984375 L 13.84375 -5.984375 L 13.84375 -5.046875 Z M 5.40625 -10.953125 L 5.40625 -15.28125 L 4.46875 -15.28125 L 4.46875 -10.953125 Z M 11.671875 -5.046875 L 11.671875 -5.984375 L 10.09375 -5.984375 L 10.09375 -5.046875 Z M 7.640625 -5.109375 L 7.640625 -6.125 C 6.484375 -6.265625 5.765625 -7.140625 5.546875 -8.140625 L 4.546875 -8.140625 C 4.828125 -6.203125 6.40625 -5.1875 7.640625 -5.109375 Z M 39.921875 -19.96875 C 39.921875 -11.03125 33.296875 -4.03125 24.21875 -4.03125 L 8.578125 -4.03125 C 5.40625 -4.03125 3.53125 -5.90625 3.53125 -9.078125 L 3.53125 -49 C 3.53125 -52.171875 5.40625 -54.046875 8.578125 -54.046875 L 21.828125 -54.046875 C 29.90625 -54.046875 35.890625 -47.5625 35.890625 -39.921875 C 35.890625 -37.109375 35.234375 -34.515625 33.875 -32.359375 C 37.546875 -29.40625 39.921875 -24.71875 39.921875 -19.96875 Z M 25.796875 -40 C 25.796875 -42.078125 24.28125 -43.890625 21.828125 -43.890625 L 13.546875 -43.890625 L 13.546875 -35.953125 L 21.828125 -35.953125 C 24.140625 -35.953125 25.796875 -37.6875 25.796875 -40 Z M 29.90625 -20.03125 C 29.90625 -23.125 27.59375 -25.65625 24.21875 -25.65625 L 13.546875 -25.65625 L 13.546875 -14.265625 L 24.21875 -14.265625 C 27.53125 -14.265625 29.90625 -16.640625 29.90625 -20.03125 Z M 29.90625 -20.03125 "/></g></g></g><g fill="#000000" fill-opacity="1"><g transform="translate(166.399658, 220.466671)"><g><path d="M 37.546875 -31.921875 C 36.890625 -33.4375 35.453125 -35.09375 34.875 -35.75 L 34.234375 -35.015625 C 35.171875 -34.078125 36.109375 -32.578125 36.828125 -31.421875 Z M 32.859375 -37.46875 C 31.859375 -38.40625 29.546875 -39.640625 28.828125 -39.921875 L 28.328125 -39.125 C 29.1875 -38.703125 31.28125 -37.765625 32.21875 -36.75 Z M 39.78125 -24.0625 C 39.921875 -25.296875 39.125 -28.6875 38.703125 -29.328125 L 37.90625 -28.890625 C 38.40625 -27.8125 38.84375 -25.15625 38.90625 -24.0625 Z M 26.296875 -40.78125 C 25.078125 -41.140625 22.5625 -41.4375 21.625 -41.4375 L 21.625 -40.5 C 22.484375 -40.578125 24.28125 -40.359375 26.015625 -39.84375 Z M 29.828125 -30.34375 C 29.109375 -31.28125 27.390625 -32.578125 26.65625 -32.859375 L 26.15625 -32.0625 C 27.09375 -31.640625 28.328125 -30.703125 29.109375 -29.6875 Z M 32.421875 -24.71875 C 32.28125 -25.9375 31.703125 -27.671875 30.921875 -28.6875 L 30.1875 -28.109375 C 30.765625 -27.390625 31.484375 -25.359375 31.484375 -24.421875 Z M 39.78125 -21.546875 L 38.84375 -21.546875 C 38.765625 -20.46875 38.34375 -17.734375 37.609375 -16.5 L 38.484375 -16.140625 C 38.90625 -16.9375 39.84375 -20.25 39.78125 -21.546875 Z M 19.3125 -40.421875 L 19.171875 -41.296875 C 18.015625 -41.21875 15.640625 -40.640625 14.5625 -40.140625 L 14.921875 -39.28125 C 16.0625 -39.78125 17.796875 -40.203125 19.3125 -40.421875 Z M 24.796875 -33.65625 C 23.703125 -34.15625 21.046875 -34.296875 20.109375 -34.078125 L 20.171875 -33.15625 C 21.109375 -33.296875 23.125 -33.296875 24.5 -32.71875 Z M 31.640625 -22.984375 C 31.640625 -21.984375 31.203125 -19.75 30.703125 -18.875 L 31.640625 -18.59375 C 32.0625 -19.59375 32.578125 -21.6875 32.578125 -22.984375 C 32.578125 -22.984375 31.640625 -22.984375 31.640625 -22.984375 Z M 18.734375 -32.9375 L 18.453125 -33.796875 C 17.296875 -33.515625 14.84375 -32.28125 14.125 -31.421875 L 14.703125 -30.765625 C 15.859375 -31.78125 17.734375 -32.640625 18.734375 -32.9375 Z M 12.609375 -38.125 L 12.25 -38.984375 C 11.171875 -38.40625 9.15625 -36.890625 8.4375 -36.03125 L 9.078125 -35.375 C 10.09375 -36.390625 11.609375 -37.546875 12.609375 -38.125 Z M 37.328125 -13.765625 L 36.53125 -14.265625 C 36.109375 -13.1875 34.515625 -11.3125 33.65625 -10.515625 L 34.15625 -9.796875 C 35.234375 -10.59375 36.890625 -12.90625 37.328125 -13.765625 Z M 30.921875 -17.21875 L 30.046875 -17.65625 C 29.6875 -17 28.328125 -15.34375 27.59375 -14.984375 L 28.109375 -14.203125 C 28.75 -14.5625 30.40625 -16.28125 30.921875 -17.21875 Z M 13.46875 -29.46875 L 12.6875 -29.984375 C 11.96875 -29.109375 11.03125 -27.453125 10.671875 -26.015625 L 11.53125 -25.796875 C 11.890625 -26.953125 12.75 -28.75 13.46875 -29.46875 Z M 7.5625 -33.578125 L 6.78125 -34.078125 C 6.203125 -33.4375 4.6875 -30.921875 4.390625 -29.765625 L 5.328125 -29.546875 C 5.6875 -30.84375 7.140625 -33.078125 7.5625 -33.578125 Z M 26.59375 -13.265625 L 26.234375 -14.125 C 25.296875 -13.46875 23.0625 -12.96875 22.34375 -12.96875 L 22.34375 -12.03125 C 23.0625 -12.03125 25.578125 -12.53125 26.59375 -13.265625 Z M 32 -8.078125 L 31.421875 -8.859375 C 30.84375 -8.078125 26.953125 -6.40625 26.09375 -6.34375 L 26.234375 -5.40625 C 28.171875 -5.84375 31.125 -7.28125 32 -8.078125 Z M 11.8125 -19.671875 C 11.390625 -20.609375 11.09375 -22.984375 11.234375 -23.921875 L 10.3125 -23.921875 C 10.234375 -22.34375 10.3125 -20.96875 10.953125 -19.390625 Z M 20.46875 -12.96875 C 19.53125 -12.90625 17.21875 -13.625 16.359375 -14.203125 L 15.859375 -13.40625 C 17.15625 -12.53125 19.234375 -12.109375 20.25 -12.03125 Z M 4.46875 -26.875 L 3.53125 -26.953125 C 3.171875 -25.65625 3.03125 -23.203125 3.171875 -22.046875 L 4.109375 -22.125 C 3.96875 -23.203125 4.171875 -25.578125 4.46875 -26.875 Z M 15.0625 -15.0625 C 14.40625 -15.703125 13.109375 -16.859375 12.46875 -18.15625 L 11.609375 -17.796875 C 12.46875 -16 13.765625 -14.984375 14.40625 -14.40625 Z M 23.703125 -4.90625 L 23.640625 -5.84375 C 22.484375 -5.546875 19.890625 -5.6875 18.875 -5.90625 L 18.671875 -4.96875 C 19.8125 -4.75 22.765625 -4.609375 23.703125 -4.90625 Z M 5.84375 -15.34375 C 5.40625 -16.21875 4.828125 -17.359375 4.390625 -19.59375 L 3.453125 -19.53125 C 3.609375 -18.375 4.328125 -16.21875 4.96875 -14.921875 Z M 16.359375 -6.40625 C 14.984375 -6.703125 13.109375 -7.5625 12.171875 -8.28125 L 11.609375 -7.5 C 12.828125 -6.625 14.921875 -5.765625 15.921875 -5.546875 Z M 10.15625 -9.734375 C 9.21875 -10.453125 7.5625 -12.25 7.0625 -13.109375 L 6.265625 -12.609375 C 6.84375 -11.609375 8.640625 -9.796875 9.578125 -9 Z M 40.78125 -23.125 C 40.78125 -12.109375 32.0625 -3.8125 21.40625 -3.8125 C 10.671875 -3.8125 2.15625 -12.171875 2.15625 -23.125 C 2.15625 -33.65625 10.59375 -42.375 21.40625 -42.375 C 32.140625 -42.375 40.78125 -33.796875 40.78125 -23.125 Z M 30.625 -23.125 C 30.625 -28.25 26.515625 -32.28125 21.40625 -32.28125 C 16.21875 -32.28125 12.171875 -28.171875 12.171875 -23.125 C 12.171875 -17.9375 16.21875 -13.84375 21.40625 -13.84375 C 26.515625 -13.84375 30.625 -17.875 30.625 -23.125 Z M 30.625 -23.125 "/></g></g></g><g fill="#000000" fill-opacity="1"><g transform="translate(209.637257, 220.466671)"><g><path d="M 37.546875 -31.921875 C 36.890625 -33.4375 35.453125 -35.09375 34.875 -35.75 L 34.234375 -35.015625 C 35.171875 -34.078125 36.109375 -32.578125 36.828125 -31.421875 Z M 32.859375 -37.46875 C 31.859375 -38.40625 29.546875 -39.640625 28.828125 -39.921875 L 28.328125 -39.125 C 29.1875 -38.703125 31.28125 -37.765625 32.21875 -36.75 Z M 39.78125 -24.0625 C 39.921875 -25.296875 39.125 -28.6875 38.703125 -29.328125 L 37.90625 -28.890625 C 38.40625 -27.8125 38.84375 -25.15625 38.90625 -24.0625 Z M 26.296875 -40.78125 C 25.078125 -41.140625 22.5625 -41.4375 21.625 -41.4375 L 21.625 -40.5 C 22.484375 -40.578125 24.28125 -40.359375 26.015625 -39.84375 Z M 29.828125 -30.34375 C 29.109375 -31.28125 27.390625 -32.578125 26.65625 -32.859375 L 26.15625 -32.0625 C 27.09375 -31.640625 28.328125 -30.703125 29.109375 -29.6875 Z M 32.421875 -24.71875 C 32.28125 -25.9375 31.703125 -27.671875 30.921875 -28.6875 L 30.1875 -28.109375 C 30.765625 -27.390625 31.484375 -25.359375 31.484375 -24.421875 Z M 39.78125 -21.546875 L 38.84375 -21.546875 C 38.765625 -20.46875 38.34375 -17.734375 37.609375 -16.5 L 38.484375 -16.140625 C 38.90625 -16.9375 39.84375 -20.25 39.78125 -21.546875 Z M 19.3125 -40.421875 L 19.171875 -41.296875 C 18.015625 -41.21875 15.640625 -40.640625 14.5625 -40.140625 L 14.921875 -39.28125 C 16.0625 -39.78125 17.796875 -40.203125 19.3125 -40.421875 Z M 24.796875 -33.65625 C 23.703125 -34.15625 21.046875 -34.296875 20.109375 -34.078125 L 20.171875 -33.15625 C 21.109375 -33.296875 23.125 -33.296875 24.5 -32.71875 Z M 31.640625 -22.984375 C 31.640625 -21.984375 31.203125 -19.75 30.703125 -18.875 L 31.640625 -18.59375 C 32.0625 -19.59375 32.578125 -21.6875 32.578125 -22.984375 C 32.578125 -22.984375 31.640625 -22.984375 31.640625 -22.984375 Z M 18.734375 -32.9375 L 18.453125 -33.796875 C 17.296875 -33.515625 14.84375 -32.28125 14.125 -31.421875 L 14.703125 -30.765625 C 15.859375 -31.78125 17.734375 -32.640625 18.734375 -32.9375 Z M 12.609375 -38.125 L 12.25 -38.984375 C 11.171875 -38.40625 9.15625 -36.890625 8.4375 -36.03125 L 9.078125 -35.375 C 10.09375 -36.390625 11.609375 -37.546875 12.609375 -38.125 Z M 37.328125 -13.765625 L 36.53125 -14.265625 C 36.109375 -13.1875 34.515625 -11.3125 33.65625 -10.515625 L 34.15625 -9.796875 C 35.234375 -10.59375 36.890625 -12.90625 37.328125 -13.765625 Z M 30.921875 -17.21875 L 30.046875 -17.65625 C 29.6875 -17 28.328125 -15.34375 27.59375 -14.984375 L 28.109375 -14.203125 C 28.75 -14.5625 30.40625 -16.28125 30.921875 -17.21875 Z M 13.46875 -29.46875 L 12.6875 -29.984375 C 11.96875 -29.109375 11.03125 -27.453125 10.671875 -26.015625 L 11.53125 -25.796875 C 11.890625 -26.953125 12.75 -28.75 13.46875 -29.46875 Z M 7.5625 -33.578125 L 6.78125 -34.078125 C 6.203125 -33.4375 4.6875 -30.921875 4.390625 -29.765625 L 5.328125 -29.546875 C 5.6875 -30.84375 7.140625 -33.078125 7.5625 -33.578125 Z M 26.59375 -13.265625 L 26.234375 -14.125 C 25.296875 -13.46875 23.0625 -12.96875 22.34375 -12.96875 L 22.34375 -12.03125 C 23.0625 -12.03125 25.578125 -12.53125 26.59375 -13.265625 Z M 32 -8.078125 L 31.421875 -8.859375 C 30.84375 -8.078125 26.953125 -6.40625 26.09375 -6.34375 L 26.234375 -5.40625 C 28.171875 -5.84375 31.125 -7.28125 32 -8.078125 Z M 11.8125 -19.671875 C 11.390625 -20.609375 11.09375 -22.984375 11.234375 -23.921875 L 10.3125 -23.921875 C 10.234375 -22.34375 10.3125 -20.96875 10.953125 -19.390625 Z M 20.46875 -12.96875 C 19.53125 -12.90625 17.21875 -13.625 16.359375 -14.203125 L 15.859375 -13.40625 C 17.15625 -12.53125 19.234375 -12.109375 20.25 -12.03125 Z M 4.46875 -26.875 L 3.53125 -26.953125 C 3.171875 -25.65625 3.03125 -23.203125 3.171875 -22.046875 L 4.109375 -22.125 C 3.96875 -23.203125 4.171875 -25.578125 4.46875 -26.875 Z M 15.0625 -15.0625 C 14.40625 -15.703125 13.109375 -16.859375 12.46875 -18.15625 L 11.609375 -17.796875 C 12.46875 -16 13.765625 -14.984375 14.40625 -14.40625 Z M 23.703125 -4.90625 L 23.640625 -5.84375 C 22.484375 -5.546875 19.890625 -5.6875 18.875 -5.90625 L 18.671875 -4.96875 C 19.8125 -4.75 22.765625 -4.609375 23.703125 -4.90625 Z M 5.84375 -15.34375 C 5.40625 -16.21875 4.828125 -17.359375 4.390625 -19.59375 L 3.453125 -19.53125 C 3.609375 -18.375 4.328125 -16.21875 4.96875 -14.921875 Z M 16.359375 -6.40625 C 14.984375 -6.703125 13.109375 -7.5625 12.171875 -8.28125 L 11.609375 -7.5 C 12.828125 -6.625 14.921875 -5.765625 15.921875 -5.546875 Z M 10.15625 -9.734375 C 9.21875 -10.453125 7.5625 -12.25 7.0625 -13.109375 L 6.265625 -12.609375 C 6.84375 -11.609375 8.640625 -9.796875 9.578125 -9 Z M 40.78125 -23.125 C 40.78125 -12.109375 32.0625 -3.8125 21.40625 -3.8125 C 10.671875 -3.8125 2.15625 -12.171875 2.15625 -23.125 C 2.15625 -33.65625 10.59375 -42.375 21.40625 -42.375 C 32.140625 -42.375 40.78125 -33.796875 40.78125 -23.125 Z M 30.625 -23.125 C 30.625 -28.25 26.515625 -32.28125 21.40625 -32.28125 C 16.21875 -32.28125 12.171875 -28.171875 12.171875 -23.125 C 12.171875 -17.9375 16.21875 -13.84375 21.40625 -13.84375 C 26.515625 -13.84375 30.625 -17.875 30.625 -23.125 Z M 30.625 -23.125 "/></g></g></g><g fill="#000000" fill-opacity="1"><g transform="translate(252.874857, 220.466671)"><g><path d="M 37.546875 -31.921875 C 36.890625 -33.4375 35.453125 -35.09375 34.875 -35.75 L 34.234375 -35.015625 C 35.171875 -34.078125 36.109375 -32.578125 36.828125 -31.421875 Z M 32.859375 -37.46875 C 31.859375 -38.40625 29.546875 -39.640625 28.828125 -39.921875 L 28.328125 -39.125 C 29.1875 -38.703125 31.28125 -37.765625 32.21875 -36.75 Z M 39.78125 -24.0625 C 39.921875 -25.296875 39.125 -28.6875 38.703125 -29.328125 L 37.90625 -28.890625 C 38.40625 -27.8125 38.84375 -25.15625 38.90625 -24.0625 Z M 26.296875 -40.78125 C 25.078125 -41.140625 22.5625 -41.4375 21.625 -41.4375 L 21.625 -40.5 C 22.484375 -40.578125 24.28125 -40.359375 26.015625 -39.84375 Z M 29.828125 -30.34375 C 29.109375 -31.28125 27.390625 -32.578125 26.65625 -32.859375 L 26.15625 -32.0625 C 27.09375 -31.640625 28.328125 -30.703125 29.109375 -29.6875 Z M 32.421875 -24.71875 C 32.28125 -25.9375 31.703125 -27.671875 30.921875 -28.6875 L 30.1875 -28.109375 C 30.765625 -27.390625 31.484375 -25.359375 31.484375 -24.421875 Z M 39.78125 -21.546875 L 38.84375 -21.546875 C 38.765625 -20.46875 38.34375 -17.734375 37.609375 -16.5 L 38.484375 -16.140625 C 38.90625 -16.9375 39.84375 -20.25 39.78125 -21.546875 Z M 19.3125 -40.421875 L 19.171875 -41.296875 C 18.015625 -41.21875 15.640625 -40.640625 14.5625 -40.140625 L 14.921875 -39.28125 C 16.0625 -39.78125 17.796875 -40.203125 19.3125 -40.421875 Z M 24.796875 -33.65625 C 23.703125 -34.15625 21.046875 -34.296875 20.109375 -34.078125 L 20.171875 -33.15625 C 21.109375 -33.296875 23.125 -33.296875 24.5 -32.71875 Z M 31.640625 -22.984375 C 31.640625 -21.984375 31.203125 -19.75 30.703125 -18.875 L 31.640625 -18.59375 C 32.0625 -19.59375 32.578125 -21.6875 32.578125 -22.984375 C 32.578125 -22.984375 31.640625 -22.984375 31.640625 -22.984375 Z M 18.734375 -32.9375 L 18.453125 -33.796875 C 17.296875 -33.515625 14.84375 -32.28125 14.125 -31.421875 L 14.703125 -30.765625 C 15.859375 -31.78125 17.734375 -32.640625 18.734375 -32.9375 Z M 12.609375 -38.125 L 12.25 -38.984375 C 11.171875 -38.40625 9.15625 -36.890625 8.4375 -36.03125 L 9.078125 -35.375 C 10.09375 -36.390625 11.609375 -37.546875 12.609375 -38.125 Z M 37.328125 -13.765625 L 36.53125 -14.265625 C 36.109375 -13.1875 34.515625 -11.3125 33.65625 -10.515625 L 34.15625 -9.796875 C 35.234375 -10.59375 36.890625 -12.90625 37.328125 -13.765625 Z M 30.921875 -17.21875 L 30.046875 -17.65625 C 29.6875 -17 28.328125 -15.34375 27.59375 -14.984375 L 28.109375 -14.203125 C 28.75 -14.5625 30.40625 -16.28125 30.921875 -17.21875 Z M 13.46875 -29.46875 L 12.6875 -29.984375 C 11.96875 -29.109375 11.03125 -27.453125 10.671875 -26.015625 L 11.53125 -25.796875 C 11.890625 -26.953125 12.75 -28.75 13.46875 -29.46875 Z M 7.5625 -33.578125 L 6.78125 -34.078125 C 6.203125 -33.4375 4.6875 -30.921875 4.390625 -29.765625 L 5.328125 -29.546875 C 5.6875 -30.84375 7.140625 -33.078125 7.5625 -33.578125 Z M 26.59375 -13.265625 L 26.234375 -14.125 C 25.296875 -13.46875 23.0625 -12.96875 22.34375 -12.96875 L 22.34375 -12.03125 C 23.0625 -12.03125 25.578125 -12.53125 26.59375 -13.265625 Z M 32 -8.078125 L 31.421875 -8.859375 C 30.84375 -8.078125 26.953125 -6.40625 26.09375 -6.34375 L 26.234375 -5.40625 C 28.171875 -5.84375 31.125 -7.28125 32 -8.078125 Z M 11.8125 -19.671875 C 11.390625 -20.609375 11.09375 -22.984375 11.234375 -23.921875 L 10.3125 -23.921875 C 10.234375 -22.34375 10.3125 -20.96875 10.953125 -19.390625 Z M 20.46875 -12.96875 C 19.53125 -12.90625 17.21875 -13.625 16.359375 -14.203125 L 15.859375 -13.40625 C 17.15625 -12.53125 19.234375 -12.109375 20.25 -12.03125 Z M 4.46875 -26.875 L 3.53125 -26.953125 C 3.171875 -25.65625 3.03125 -23.203125 3.171875 -22.046875 L 4.109375 -22.125 C 3.96875 -23.203125 4.171875 -25.578125 4.46875 -26.875 Z M 15.0625 -15.0625 C 14.40625 -15.703125 13.109375 -16.859375 12.46875 -18.15625 L 11.609375 -17.796875 C 12.46875 -16 13.765625 -14.984375 14.40625 -14.40625 Z M 23.703125 -4.90625 L 23.640625 -5.84375 C 22.484375 -5.546875 19.890625 -5.6875 18.875 -5.90625 L 18.671875 -4.96875 C 19.8125 -4.75 22.765625 -4.609375 23.703125 -4.90625 Z M 5.84375 -15.34375 C 5.40625 -16.21875 4.828125 -17.359375 4.390625 -19.59375 L 3.453125 -19.53125 C 3.609375 -18.375 4.328125 -16.21875 4.96875 -14.921875 Z M 16.359375 -6.40625 C 14.984375 -6.703125 13.109375 -7.5625 12.171875 -8.28125 L 11.609375 -7.5 C 12.828125 -6.625 14.921875 -5.765625 15.921875 -5.546875 Z M 10.15625 -9.734375 C 9.21875 -10.453125 7.5625 -12.25 7.0625 -13.109375 L 6.265625 -12.609375 C 6.84375 -11.609375 8.640625 -9.796875 9.578125 -9 Z M 40.78125 -23.125 C 40.78125 -12.109375 32.0625 -3.8125 21.40625 -3.8125 C 10.671875 -3.8125 2.15625 -12.171875 2.15625 -23.125 C 2.15625 -33.65625 10.59375 -42.375 21.40625 -42.375 C 32.140625 -42.375 40.78125 -33.796875 40.78125 -23.125 Z M 30.625 -23.125 C 30.625 -28.25 26.515625 -32.28125 21.40625 -32.28125 C 16.21875 -32.28125 12.171875 -28.171875 12.171875 -23.125 C 12.171875 -17.9375 16.21875 -13.84375 21.40625 -13.84375 C 26.515625 -13.84375 30.625 -17.875 30.625 -23.125 Z M 30.625 -23.125 "/></g></g></g><g fill="#000000" fill-opacity="1"><g transform="translate(296.112456, 220.466671)"><g><path d="M 29.25 -40.640625 C 28.03125 -41.515625 25.9375 -41.359375 24.796875 -40.421875 L 25.296875 -39.640625 C 26.234375 -40.359375 27.890625 -40.578125 28.96875 -39.703125 Z M 30.984375 -37.984375 L 30.125 -37.828125 C 30.40625 -36.53125 29.625 -35.015625 28.46875 -34.375 L 28.96875 -33.578125 C 30.1875 -34.15625 31.5625 -36.171875 30.984375 -37.984375 Z M 12.90625 -49.578125 C 12.90625 -50.796875 12.25 -52.671875 10.234375 -53.390625 L 9.875 -52.46875 C 11.453125 -51.8125 11.890625 -50.296875 11.96875 -49.578125 Z M 23.5 -38.40625 L 22.984375 -39.203125 L 19.53125 -36.6875 L 20.03125 -35.890625 Z M 7.703125 -52.46875 L 7.421875 -53.390625 C 5.328125 -52.671875 4.828125 -50.375 4.828125 -49.65625 L 5.765625 -49.65625 C 5.765625 -50.65625 6.5625 -52.03125 7.703125 -52.46875 Z M 27.234375 -32.21875 L 26.734375 -33 L 23.34375 -30.40625 L 23.921875 -29.6875 Z M 12.90625 -42.4375 L 12.90625 -46.765625 L 11.96875 -46.765625 L 11.96875 -42.4375 Z M 5.6875 -42.4375 L 5.6875 -46.84375 L 4.75 -46.84375 L 4.75 -42.4375 Z M 12.90625 -35.890625 L 12.90625 -40.203125 L 11.96875 -40.203125 L 11.96875 -35.890625 Z M 18.234375 -34.59375 L 17.734375 -35.375 L 14.125 -32.78125 L 14.703125 -32 Z M 22.265625 -28.46875 L 21.6875 -29.25 L 17.9375 -26.453125 L 18.515625 -25.65625 Z M 5.6875 -35.890625 L 5.6875 -40.203125 L 4.75 -40.203125 L 4.75 -35.890625 Z M 12.90625 -31.78125 L 12.90625 -33.578125 L 11.96875 -33.578125 L 11.96875 -31.78125 Z M 28.109375 -13.546875 L 24.71875 -16.5 L 24.140625 -15.78125 L 27.53125 -12.828125 Z M 31.28125 -7.5 C 31.640625 -8.859375 31.0625 -10.953125 29.90625 -11.890625 L 29.40625 -11.09375 C 30.1875 -10.3125 30.484375 -8.71875 30.265625 -7.921875 Z M 23.203125 -17.875 L 19.8125 -20.75 L 19.234375 -20.109375 L 22.625 -17.15625 Z M 5.6875 -29.25 L 5.6875 -33.578125 L 4.75 -33.578125 L 4.75 -29.25 Z M 29.46875 -5.1875 L 28.890625 -6.125 C 27.953125 -5.484375 26.65625 -5.546875 25.796875 -6.265625 L 25.15625 -5.546875 C 26.234375 -4.609375 28.25 -4.328125 29.46875 -5.1875 Z M 23.640625 -8 L 20.25 -10.953125 L 19.671875 -10.234375 L 23.0625 -7.28125 Z M 5.6875 -22.765625 L 5.6875 -27.09375 L 4.75 -27.09375 L 4.75 -22.765625 Z M 13.765625 -16.4375 L 12.328125 -17.65625 L 11.75 -17 L 13.1875 -15.703125 Z M 18.671875 -12.328125 L 15.28125 -15.140625 L 14.703125 -14.484375 L 18.09375 -11.609375 Z M 5.6875 -16.28125 L 5.6875 -20.609375 L 4.75 -20.609375 L 4.75 -16.28125 Z M 12.90625 -11.234375 L 12.90625 -15.0625 L 11.96875 -15.0625 L 11.96875 -11.234375 Z M 5.6875 -11.234375 L 5.6875 -14.125 L 4.75 -14.125 L 4.75 -11.234375 Z M 12.90625 -8.359375 L 11.96875 -8.359375 C 11.75 -6.78125 10.953125 -5.90625 9.65625 -5.484375 L 9.9375 -4.546875 C 12.109375 -5.046875 12.828125 -7.0625 12.90625 -8.359375 Z M 7.703125 -5.546875 C 6.265625 -6.125 5.765625 -7.5625 5.6875 -8.4375 L 4.75 -8.4375 C 4.828125 -6.625 5.765625 -5.1875 7.34375 -4.609375 Z M 30.265625 -12.96875 C 35.890625 -7.5625 29.25 -0.21875 23.78125 -5.484375 L 13.84375 -13.984375 L 13.84375 -9 C 13.84375 -1.4375 3.8125 -1.015625 3.8125 -9 L 3.8125 -49.078125 C 3.8125 -56.640625 13.84375 -56.640625 13.84375 -49.078125 L 13.84375 -33.796875 L 24.0625 -41.078125 C 29.6875 -45.40625 35.3125 -37.046875 29.828125 -33 L 17.734375 -24 Z M 17.65625 -21.46875 L 18.234375 -22.1875 C 18.234375 -22.1875 16.21875 -24 16.140625 -24 L 16.796875 -24.421875 L 16.21875 -25.21875 L 14.765625 -24 Z M 17.65625 -21.46875 "/></g></g></g><g fill="#000000" fill-opacity="1"><g transform="translate(329.261287, 220.466671)"><g><path d="M 30.765625 -36.890625 C 29.984375 -37.828125 28.328125 -38.984375 27.171875 -39.5625 L 26.8125 -38.703125 C 27.8125 -38.1875 29.625 -36.890625 30.125 -36.171875 Z M 33.796875 -30.546875 C 34.015625 -31.5625 33.875 -33.21875 32.640625 -34.8125 L 31.921875 -34.234375 C 32.71875 -33.21875 33.078125 -31.703125 32.78125 -30.703125 Z M 24.859375 -40.5 C 23.703125 -41.078125 21.546875 -41.21875 20.390625 -41.359375 L 20.25 -40.421875 C 21.328125 -40.28125 23.34375 -40.140625 24.5 -39.640625 Z M 32 -28.03125 L 31.484375 -29.046875 C 30.34375 -28.171875 28.6875 -28.53125 27.75 -29.46875 L 27.09375 -28.828125 C 28.75 -27.234375 30.546875 -27.234375 32 -28.03125 Z M 26.15625 -31.421875 C 25.15625 -32.5 23.203125 -33.578125 21.984375 -33.875 L 21.625 -33 C 22.921875 -32.859375 24.859375 -31.484375 25.515625 -30.703125 Z M 17.796875 -40.359375 L 17.796875 -41.296875 C 16.640625 -41.296875 14.5625 -40.78125 13.1875 -40.203125 L 13.546875 -39.421875 C 14.625 -39.78125 16.5 -40.359375 17.796875 -40.359375 Z M 32.578125 -22.984375 C 31.640625 -23.921875 29.765625 -24.9375 28.171875 -25.515625 L 27.953125 -24.640625 C 28.96875 -24.28125 30.984375 -23.203125 32 -22.265625 Z M 19.75 -33.296875 L 19.75 -34.234375 C 18.875 -34.234375 17 -34.234375 15.921875 -33.796875 L 16.28125 -33 C 17.359375 -33.296875 18.453125 -33.296875 19.75 -33.296875 Z M 35.953125 -16.140625 C 36.03125 -18.234375 35.09375 -20.171875 34.375 -21.046875 L 33.65625 -20.46875 C 34.734375 -19.3125 35.09375 -16.9375 35.015625 -16 Z M 25.875 -26.375 C 24.640625 -26.734375 22.484375 -27.234375 21.625 -27.390625 L 21.40625 -26.453125 C 22.34375 -26.296875 24.21875 -25.796875 25.578125 -25.4375 Z M 11.234375 -38.1875 L 10.8125 -39.0625 C 10.015625 -38.765625 8.078125 -36.75 7.5 -35.953125 L 8.21875 -35.3125 C 8.71875 -36.171875 10.3125 -37.828125 11.234375 -38.1875 Z M 28.75 -15.5 C 28.828125 -17.578125 27.53125 -18.453125 26.234375 -18.953125 L 25.9375 -18.15625 C 27.53125 -17.578125 27.890625 -16.5 27.8125 -15.5625 Z M 35.53125 -13.109375 L 34.65625 -13.46875 C 34.453125 -12.109375 33.4375 -10.734375 32.578125 -9.796875 L 33.21875 -9.15625 C 34.078125 -9.734375 35.375 -12.109375 35.53125 -13.109375 Z M 14.703125 -32.0625 L 14.046875 -32.78125 C 13.328125 -31.921875 13.046875 -30.546875 13.625 -29.40625 L 14.40625 -29.828125 C 14.125 -30.546875 14.203125 -31.484375 14.703125 -32.0625 Z M 19.59375 -27.890625 C 18.515625 -28.03125 16.859375 -28.390625 15.859375 -28.828125 L 15.5625 -28.03125 C 16.5 -27.59375 18.234375 -27.171875 19.390625 -26.953125 Z M 23.78125 -19.75 C 22.765625 -20.03125 21.328125 -20.390625 20.109375 -20.609375 L 19.890625 -19.671875 C 21.109375 -19.453125 22.5625 -19.171875 23.5625 -18.875 Z M 28.109375 -13.84375 L 27.234375 -14.265625 C 26.59375 -13.328125 25.296875 -12.828125 24.28125 -12.609375 L 24.421875 -11.75 C 25.71875 -12.03125 27.390625 -12.828125 28.109375 -13.84375 Z M 7.0625 -32.9375 L 6.265625 -33.359375 C 5.625 -31.921875 5.765625 -29.6875 6.046875 -28.328125 L 6.921875 -28.6875 C 6.625 -29.625 6.625 -31.78125 7.0625 -32.9375 Z M 17.734375 -21.1875 C 16.640625 -21.265625 14.484375 -21.984375 13.46875 -22.40625 L 13.1875 -21.46875 C 14.125 -21.109375 16 -20.46875 17.515625 -20.171875 Z M 31.34375 -7.5 L 30.703125 -8.21875 C 30.046875 -7.5 28.171875 -6.703125 27.171875 -6.34375 L 27.453125 -5.484375 C 28.828125 -5.984375 30.34375 -6.625 31.34375 -7.5 Z M 11.171875 -23.5 C 10.453125 -23.78125 8.71875 -25 8.140625 -25.9375 L 7.34375 -25.515625 C 7.921875 -24.21875 9.875 -23.125 10.8125 -22.625 Z M 22.1875 -11.3125 L 22.1875 -12.25 C 21.265625 -12.03125 19.171875 -12.03125 18.015625 -12.328125 L 17.796875 -11.390625 C 18.953125 -11.09375 20.75 -11.09375 22.1875 -11.3125 Z M 24.9375 -4.609375 L 24.859375 -5.546875 C 23.921875 -5.328125 21.1875 -4.828125 20.109375 -5.046875 L 20.03125 -4.109375 C 20.96875 -3.890625 23.703125 -4.328125 24.9375 -4.609375 Z M 15.703125 -12.96875 C 14.5625 -13.265625 13.109375 -14.203125 12.25 -14.765625 L 11.8125 -14.046875 C 12.90625 -13.265625 13.90625 -12.53125 15.421875 -12.109375 Z M 10.671875 -16.578125 C 9.9375 -17.21875 8.859375 -19.3125 5.625 -18.375 L 5.84375 -17.4375 C 7.640625 -17.9375 8.71875 -17.65625 9.9375 -15.859375 Z M 17.578125 -5.1875 C 16.5 -5.265625 14.34375 -5.765625 13.46875 -6.203125 L 13.1875 -5.328125 C 14.046875 -4.828125 15.921875 -4.546875 17.4375 -4.25 Z M 5.625 -11.09375 C 4.90625 -11.890625 3.609375 -13.46875 4.109375 -15.421875 L 3.25 -15.921875 C 2.671875 -14.203125 3.390625 -12.328125 4.90625 -10.453125 Z M 11.234375 -7.0625 C 10.15625 -7.421875 8.359375 -8.578125 7.5 -9.296875 L 6.921875 -8.5 C 7.703125 -7.921875 9.515625 -6.703125 10.875 -6.203125 Z M 36.890625 -15.859375 C 36.890625 -7.859375 28.25 -3.25 20.03125 -3.25 C 14.703125 -3.25 6.5625 -5.765625 3.09375 -11.3125 C -1.015625 -18.15625 7.5625 -22.625 11.3125 -17.21875 C 13.046875 -14.625 16.796875 -12.90625 20.109375 -12.90625 C 22.84375 -12.90625 26.875 -13.546875 26.875 -15.859375 C 26.875 -17.9375 21.046875 -18.59375 17.65625 -19.390625 C 6.5625 -21.984375 4.90625 -26.015625 4.90625 -30.625 C 4.90625 -37.046875 10.953125 -42.296875 19.234375 -42.296875 C 25.65625 -42.296875 30.34375 -39.78125 33.71875 -34.875 C 37.765625 -28.890625 30.125 -23.125 25.359375 -29.25 C 23.78125 -31.34375 21.828125 -32.359375 19.234375 -32.359375 C 17.296875 -32.359375 15.203125 -32.140625 15.203125 -30.703125 C 15.203125 -29.25 18.453125 -28.890625 21.40625 -28.328125 C 32.359375 -26.15625 36.890625 -22.265625 36.890625 -15.859375 Z M 36.890625 -15.859375 "/></g></g></g></svg>